<mxfile host="app.diagrams.net" modified="2022-02-14T22:27:47.095Z" agent="5.0 (Windows NT 10.0; Win64; x64) AppleWebKit/537.36 (KHTML, like Gecko) Chrome/98.0.4758.82 Safari/537.36" etag="KBhRy1NWqLz0mUWLbHvw" version="15.8.6" type="github">
  <diagram id="R2lEEEUBdFMjLlhIrx00" name="Page-1">
    <mxGraphModel dx="5213" dy="773" grid="1" gridSize="10" guides="1" tooltips="1" connect="1" arrows="1" fold="1" page="1" pageScale="1" pageWidth="850" pageHeight="1100" math="0" shadow="0" extFonts="Permanent Marker^https://fonts.googleapis.com/css?family=Permanent+Marker">
      <root>
        <mxCell id="0" />
        <mxCell id="1" parent="0" />
        <mxCell id="dVOeHCZodFONVVeo2tg_-1" value="LOGIN" style="rounded=0;whiteSpace=wrap;html=1;" parent="1" vertex="1">
          <mxGeometry x="2846" y="3140" width="200" height="80" as="geometry" />
        </mxCell>
        <mxCell id="dVOeHCZodFONVVeo2tg_-2" value="LOGOUT" style="rounded=0;whiteSpace=wrap;html=1;" parent="1" vertex="1">
          <mxGeometry x="2796" y="4610" width="200" height="80" as="geometry" />
        </mxCell>
        <mxCell id="dVOeHCZodFONVVeo2tg_-3" value="REGISTRASI PELANGGAN" style="rounded=0;whiteSpace=wrap;html=1;" parent="1" vertex="1">
          <mxGeometry x="2066" y="3260" width="200" height="80" as="geometry" />
        </mxCell>
        <mxCell id="dVOeHCZodFONVVeo2tg_-4" value="CRUD OUTLET" style="rounded=0;whiteSpace=wrap;html=1;" parent="1" vertex="1">
          <mxGeometry x="306" y="3835" width="200" height="80" as="geometry" />
        </mxCell>
        <mxCell id="dVOeHCZodFONVVeo2tg_-5" value="CRUD PRODUK/PAKET CUCIAN&lt;span style=&quot;color: rgba(0 , 0 , 0 , 0) ; font-family: monospace ; font-size: 0px&quot;&gt;%3CmxGraphModel%3E%3Croot%3E%3CmxCell%20id%3D%220%22%2F%3E%3CmxCell%20id%3D%221%22%20parent%3D%220%22%2F%3E%3CmxCell%20id%3D%222%22%20value%3D%22Registrasi%20Pelanggan%22%20style%3D%22rounded%3D0%3BwhiteSpace%3Dwrap%3Bhtml%3D1%3B%22%20vertex%3D%221%22%20parent%3D%221%22%3E%3CmxGeometry%20x%3D%2280%22%20y%3D%22260%22%20width%3D%22200%22%20height%3D%2280%22%20as%3D%22geometry%22%2F%3E%3C%2FmxCell%3E%3C%2Froot%3E%3C%2FmxGraphModel%3E&lt;/span&gt;" style="rounded=0;whiteSpace=wrap;html=1;" parent="1" vertex="1">
          <mxGeometry x="306" y="3290" width="200" height="80" as="geometry" />
        </mxCell>
        <mxCell id="dVOeHCZodFONVVeo2tg_-6" value="CRUD PENGGUNA&lt;span style=&quot;color: rgba(0 , 0 , 0 , 0) ; font-family: monospace ; font-size: 0px&quot;&gt;%3CmxGraphModel%3E%3Croot%3E%3CmxCell%20id%3D%220%22%2F%3E%3CmxCell%20id%3D%221%22%20parent%3D%220%22%2F%3E%3CmxCell%20id%3D%222%22%20value%3D%22Registrasi%20Pelanggan%22%20style%3D%22rounded%3D0%3BwhiteSpace%3Dwrap%3Bhtml%3D1%3B%22%20vertex%3D%221%22%20parent%3D%221%22%3E%3CmxGeometry%20x%3D%2280%22%20y%3D%22260%22%20width%3D%22200%22%20height%3D%2280%22%20as%3D%22geometry%22%2F%3E%3C%2FmxCell%3E%3C%2Froot%3E%3C%2FmxGraphModel%3E&lt;/span&gt;" style="rounded=0;whiteSpace=wrap;html=1;" parent="1" vertex="1">
          <mxGeometry x="1596" y="3650" width="200" height="80" as="geometry" />
        </mxCell>
        <mxCell id="dVOeHCZodFONVVeo2tg_-7" value="ENTRI TRANSAKSI" style="rounded=0;whiteSpace=wrap;html=1;" parent="1" vertex="1">
          <mxGeometry x="2080" y="3800" width="200" height="80" as="geometry" />
        </mxCell>
        <mxCell id="dVOeHCZodFONVVeo2tg_-8" value="GENERATE LAPORAN" style="rounded=0;whiteSpace=wrap;html=1;" parent="1" vertex="1">
          <mxGeometry x="2801" y="4200" width="200" height="80" as="geometry" />
        </mxCell>
        <mxCell id="dVOeHCZodFONVVeo2tg_-9" value="#username" style="ellipse;whiteSpace=wrap;html=1;" parent="1" vertex="1">
          <mxGeometry x="2736" y="2950" width="190" height="80" as="geometry" />
        </mxCell>
        <mxCell id="dVOeHCZodFONVVeo2tg_-10" value="password" style="ellipse;whiteSpace=wrap;html=1;" parent="1" vertex="1">
          <mxGeometry x="2966" y="2950" width="190" height="80" as="geometry" />
        </mxCell>
        <mxCell id="dVOeHCZodFONVVeo2tg_-11" value="" style="endArrow=none;html=1;rounded=0;entryX=0.5;entryY=0;entryDx=0;entryDy=0;exitX=0.5;exitY=1;exitDx=0;exitDy=0;" parent="1" source="dVOeHCZodFONVVeo2tg_-9" target="dVOeHCZodFONVVeo2tg_-1" edge="1">
          <mxGeometry width="50" height="50" relative="1" as="geometry">
            <mxPoint x="386" y="700" as="sourcePoint" />
            <mxPoint x="436" y="650" as="targetPoint" />
          </mxGeometry>
        </mxCell>
        <mxCell id="dVOeHCZodFONVVeo2tg_-13" value="" style="endArrow=none;html=1;rounded=0;entryX=0.5;entryY=0;entryDx=0;entryDy=0;exitX=0.5;exitY=1;exitDx=0;exitDy=0;" parent="1" source="dVOeHCZodFONVVeo2tg_-10" target="dVOeHCZodFONVVeo2tg_-1" edge="1">
          <mxGeometry width="50" height="50" relative="1" as="geometry">
            <mxPoint x="516" y="700" as="sourcePoint" />
            <mxPoint x="566" y="650" as="targetPoint" />
          </mxGeometry>
        </mxCell>
        <mxCell id="dVOeHCZodFONVVeo2tg_-14" value="nama_pelanggan" style="ellipse;whiteSpace=wrap;html=1;" parent="1" vertex="1">
          <mxGeometry x="1776" y="3360" width="170" height="80" as="geometry" />
        </mxCell>
        <mxCell id="dVOeHCZodFONVVeo2tg_-15" value="alamat" style="ellipse;whiteSpace=wrap;html=1;" parent="1" vertex="1">
          <mxGeometry x="1886" y="3430" width="180" height="80" as="geometry" />
        </mxCell>
        <mxCell id="dVOeHCZodFONVVeo2tg_-16" value="jenis_kelamin" style="ellipse;whiteSpace=wrap;html=1;" parent="1" vertex="1">
          <mxGeometry x="2076" y="3450" width="180" height="80" as="geometry" />
        </mxCell>
        <mxCell id="dVOeHCZodFONVVeo2tg_-17" value="#no_ktp" style="ellipse;whiteSpace=wrap;html=1;" parent="1" vertex="1">
          <mxGeometry x="2266" y="3430" width="180" height="80" as="geometry" />
        </mxCell>
        <mxCell id="dVOeHCZodFONVVeo2tg_-19" value="" style="endArrow=none;html=1;rounded=0;entryX=0.5;entryY=1;entryDx=0;entryDy=0;exitX=0.5;exitY=0;exitDx=0;exitDy=0;" parent="1" source="dVOeHCZodFONVVeo2tg_-15" target="dVOeHCZodFONVVeo2tg_-3" edge="1">
          <mxGeometry width="50" height="50" relative="1" as="geometry">
            <mxPoint x="496" y="700" as="sourcePoint" />
            <mxPoint x="546" y="650" as="targetPoint" />
          </mxGeometry>
        </mxCell>
        <mxCell id="dVOeHCZodFONVVeo2tg_-20" value="" style="endArrow=none;html=1;rounded=0;entryX=0.5;entryY=1;entryDx=0;entryDy=0;exitX=0.5;exitY=0;exitDx=0;exitDy=0;" parent="1" source="dVOeHCZodFONVVeo2tg_-16" target="dVOeHCZodFONVVeo2tg_-3" edge="1">
          <mxGeometry width="50" height="50" relative="1" as="geometry">
            <mxPoint x="496" y="700" as="sourcePoint" />
            <mxPoint x="546" y="650" as="targetPoint" />
          </mxGeometry>
        </mxCell>
        <mxCell id="dVOeHCZodFONVVeo2tg_-21" value="" style="endArrow=none;html=1;rounded=0;exitX=0.5;exitY=0;exitDx=0;exitDy=0;entryX=0.5;entryY=1;entryDx=0;entryDy=0;" parent="1" source="dVOeHCZodFONVVeo2tg_-14" target="dVOeHCZodFONVVeo2tg_-3" edge="1">
          <mxGeometry width="50" height="50" relative="1" as="geometry">
            <mxPoint x="496" y="700" as="sourcePoint" />
            <mxPoint x="2171" y="3420" as="targetPoint" />
          </mxGeometry>
        </mxCell>
        <mxCell id="dVOeHCZodFONVVeo2tg_-22" value="" style="endArrow=none;html=1;rounded=0;entryX=0.5;entryY=1;entryDx=0;entryDy=0;exitX=0.5;exitY=0;exitDx=0;exitDy=0;" parent="1" source="dVOeHCZodFONVVeo2tg_-17" target="dVOeHCZodFONVVeo2tg_-3" edge="1">
          <mxGeometry width="50" height="50" relative="1" as="geometry">
            <mxPoint x="496" y="700" as="sourcePoint" />
            <mxPoint x="546" y="650" as="targetPoint" />
          </mxGeometry>
        </mxCell>
        <mxCell id="dVOeHCZodFONVVeo2tg_-23" value="#nama_outlet" style="ellipse;whiteSpace=wrap;html=1;" parent="1" vertex="1">
          <mxGeometry x="71" y="4005" width="160" height="80" as="geometry" />
        </mxCell>
        <mxCell id="dVOeHCZodFONVVeo2tg_-24" value="owner" style="ellipse;whiteSpace=wrap;html=1;" parent="1" vertex="1">
          <mxGeometry x="221" y="4065" width="160" height="80" as="geometry" />
        </mxCell>
        <mxCell id="dVOeHCZodFONVVeo2tg_-25" value="no_telepon" style="ellipse;whiteSpace=wrap;html=1;" parent="1" vertex="1">
          <mxGeometry x="421" y="4065" width="160" height="80" as="geometry" />
        </mxCell>
        <mxCell id="dVOeHCZodFONVVeo2tg_-26" value="alamat" style="ellipse;whiteSpace=wrap;html=1;" parent="1" vertex="1">
          <mxGeometry x="581" y="4005" width="160" height="80" as="geometry" />
        </mxCell>
        <mxCell id="dVOeHCZodFONVVeo2tg_-27" value="" style="endArrow=none;html=1;rounded=0;exitX=0.5;exitY=0;exitDx=0;exitDy=0;entryX=0.5;entryY=1;entryDx=0;entryDy=0;" parent="1" source="dVOeHCZodFONVVeo2tg_-24" target="dVOeHCZodFONVVeo2tg_-4" edge="1">
          <mxGeometry width="50" height="50" relative="1" as="geometry">
            <mxPoint x="306" y="690" as="sourcePoint" />
            <mxPoint x="356" y="640" as="targetPoint" />
          </mxGeometry>
        </mxCell>
        <mxCell id="dVOeHCZodFONVVeo2tg_-28" value="" style="endArrow=none;html=1;rounded=0;entryX=0.5;entryY=1;entryDx=0;entryDy=0;exitX=0.5;exitY=0;exitDx=0;exitDy=0;" parent="1" source="dVOeHCZodFONVVeo2tg_-25" target="dVOeHCZodFONVVeo2tg_-4" edge="1">
          <mxGeometry width="50" height="50" relative="1" as="geometry">
            <mxPoint x="346" y="810" as="sourcePoint" />
            <mxPoint x="396" y="760" as="targetPoint" />
          </mxGeometry>
        </mxCell>
        <mxCell id="dVOeHCZodFONVVeo2tg_-29" value="" style="endArrow=none;html=1;rounded=0;entryX=0.5;entryY=1;entryDx=0;entryDy=0;exitX=0.5;exitY=0;exitDx=0;exitDy=0;" parent="1" source="dVOeHCZodFONVVeo2tg_-23" target="dVOeHCZodFONVVeo2tg_-4" edge="1">
          <mxGeometry width="50" height="50" relative="1" as="geometry">
            <mxPoint x="346" y="570" as="sourcePoint" />
            <mxPoint x="396" y="520" as="targetPoint" />
          </mxGeometry>
        </mxCell>
        <mxCell id="dVOeHCZodFONVVeo2tg_-30" value="" style="endArrow=none;html=1;rounded=0;entryX=0.5;entryY=1;entryDx=0;entryDy=0;exitX=0.5;exitY=0;exitDx=0;exitDy=0;" parent="1" source="dVOeHCZodFONVVeo2tg_-26" target="dVOeHCZodFONVVeo2tg_-4" edge="1">
          <mxGeometry width="50" height="50" relative="1" as="geometry">
            <mxPoint x="346" y="570" as="sourcePoint" />
            <mxPoint x="396" y="520" as="targetPoint" />
          </mxGeometry>
        </mxCell>
        <mxCell id="dVOeHCZodFONVVeo2tg_-31" value="jenis_produk" style="ellipse;whiteSpace=wrap;html=1;" parent="1" vertex="1">
          <mxGeometry x="56" y="3400" width="160" height="80" as="geometry" />
        </mxCell>
        <mxCell id="dVOeHCZodFONVVeo2tg_-32" value="status_produk" style="ellipse;whiteSpace=wrap;html=1;" parent="1" vertex="1">
          <mxGeometry x="176" y="3480" width="160" height="80" as="geometry" />
        </mxCell>
        <mxCell id="dVOeHCZodFONVVeo2tg_-33" value="harga_produk" style="ellipse;whiteSpace=wrap;html=1;" parent="1" vertex="1">
          <mxGeometry x="326" y="3540" width="160" height="80" as="geometry" />
        </mxCell>
        <mxCell id="dVOeHCZodFONVVeo2tg_-34" value="nama_paket" style="ellipse;whiteSpace=wrap;html=1;" parent="1" vertex="1">
          <mxGeometry x="486" y="3480" width="160" height="80" as="geometry" />
        </mxCell>
        <mxCell id="dVOeHCZodFONVVeo2tg_-35" value="nama_outlet" style="ellipse;whiteSpace=wrap;html=1;" parent="1" vertex="1">
          <mxGeometry x="596" y="3400" width="160" height="80" as="geometry" />
        </mxCell>
        <mxCell id="dVOeHCZodFONVVeo2tg_-36" value="" style="endArrow=none;html=1;rounded=0;entryX=0.5;entryY=1;entryDx=0;entryDy=0;exitX=0.5;exitY=0;exitDx=0;exitDy=0;" parent="1" source="dVOeHCZodFONVVeo2tg_-31" target="dVOeHCZodFONVVeo2tg_-5" edge="1">
          <mxGeometry width="50" height="50" relative="1" as="geometry">
            <mxPoint x="476" y="870" as="sourcePoint" />
            <mxPoint x="526" y="820" as="targetPoint" />
          </mxGeometry>
        </mxCell>
        <mxCell id="dVOeHCZodFONVVeo2tg_-37" value="" style="endArrow=none;html=1;rounded=0;entryX=0.5;entryY=1;entryDx=0;entryDy=0;exitX=0.564;exitY=0.006;exitDx=0;exitDy=0;exitPerimeter=0;" parent="1" source="dVOeHCZodFONVVeo2tg_-35" target="dVOeHCZodFONVVeo2tg_-5" edge="1">
          <mxGeometry width="50" height="50" relative="1" as="geometry">
            <mxPoint x="476" y="870" as="sourcePoint" />
            <mxPoint x="526" y="820" as="targetPoint" />
          </mxGeometry>
        </mxCell>
        <mxCell id="dVOeHCZodFONVVeo2tg_-38" value="" style="endArrow=none;html=1;rounded=0;entryX=0.5;entryY=1;entryDx=0;entryDy=0;exitX=0.5;exitY=0;exitDx=0;exitDy=0;" parent="1" source="dVOeHCZodFONVVeo2tg_-32" target="dVOeHCZodFONVVeo2tg_-5" edge="1">
          <mxGeometry width="50" height="50" relative="1" as="geometry">
            <mxPoint x="476" y="870" as="sourcePoint" />
            <mxPoint x="526" y="820" as="targetPoint" />
          </mxGeometry>
        </mxCell>
        <mxCell id="dVOeHCZodFONVVeo2tg_-39" value="" style="endArrow=none;html=1;rounded=0;entryX=0.5;entryY=1;entryDx=0;entryDy=0;exitX=0.5;exitY=0;exitDx=0;exitDy=0;" parent="1" source="dVOeHCZodFONVVeo2tg_-33" target="dVOeHCZodFONVVeo2tg_-5" edge="1">
          <mxGeometry width="50" height="50" relative="1" as="geometry">
            <mxPoint x="476" y="870" as="sourcePoint" />
            <mxPoint x="526" y="820" as="targetPoint" />
          </mxGeometry>
        </mxCell>
        <mxCell id="dVOeHCZodFONVVeo2tg_-40" value="" style="endArrow=none;html=1;rounded=0;entryX=0.5;entryY=1;entryDx=0;entryDy=0;exitX=0.5;exitY=0;exitDx=0;exitDy=0;" parent="1" source="dVOeHCZodFONVVeo2tg_-34" target="dVOeHCZodFONVVeo2tg_-5" edge="1">
          <mxGeometry width="50" height="50" relative="1" as="geometry">
            <mxPoint x="476" y="870" as="sourcePoint" />
            <mxPoint x="526" y="820" as="targetPoint" />
          </mxGeometry>
        </mxCell>
        <mxCell id="dVOeHCZodFONVVeo2tg_-41" value="#nama_pengguna" style="ellipse;whiteSpace=wrap;html=1;" parent="1" vertex="1">
          <mxGeometry x="1436" y="3770" width="160" height="80" as="geometry" />
        </mxCell>
        <mxCell id="dVOeHCZodFONVVeo2tg_-42" value="username" style="ellipse;whiteSpace=wrap;html=1;" parent="1" vertex="1">
          <mxGeometry x="1616" y="3795" width="160" height="80" as="geometry" />
        </mxCell>
        <mxCell id="dVOeHCZodFONVVeo2tg_-43" value="role" style="ellipse;whiteSpace=wrap;html=1;" parent="1" vertex="1">
          <mxGeometry x="1796" y="3770" width="160" height="80" as="geometry" />
        </mxCell>
        <mxCell id="dVOeHCZodFONVVeo2tg_-44" value="" style="endArrow=none;html=1;rounded=0;entryX=0.5;entryY=1;entryDx=0;entryDy=0;exitX=0.5;exitY=0;exitDx=0;exitDy=0;" parent="1" source="dVOeHCZodFONVVeo2tg_-41" target="dVOeHCZodFONVVeo2tg_-6" edge="1">
          <mxGeometry width="50" height="50" relative="1" as="geometry">
            <mxPoint x="876" y="580" as="sourcePoint" />
            <mxPoint x="926" y="530" as="targetPoint" />
          </mxGeometry>
        </mxCell>
        <mxCell id="dVOeHCZodFONVVeo2tg_-45" value="" style="endArrow=none;html=1;rounded=0;entryX=0.5;entryY=1;entryDx=0;entryDy=0;exitX=0.5;exitY=0;exitDx=0;exitDy=0;" parent="1" source="dVOeHCZodFONVVeo2tg_-42" target="dVOeHCZodFONVVeo2tg_-6" edge="1">
          <mxGeometry width="50" height="50" relative="1" as="geometry">
            <mxPoint x="876" y="580" as="sourcePoint" />
            <mxPoint x="926" y="530" as="targetPoint" />
          </mxGeometry>
        </mxCell>
        <mxCell id="dVOeHCZodFONVVeo2tg_-46" value="" style="endArrow=none;html=1;rounded=0;exitX=0.5;exitY=0;exitDx=0;exitDy=0;entryX=0.5;entryY=1;entryDx=0;entryDy=0;" parent="1" source="dVOeHCZodFONVVeo2tg_-43" target="dVOeHCZodFONVVeo2tg_-6" edge="1">
          <mxGeometry width="50" height="50" relative="1" as="geometry">
            <mxPoint x="826" y="620" as="sourcePoint" />
            <mxPoint x="816" y="550" as="targetPoint" />
          </mxGeometry>
        </mxCell>
        <mxCell id="dVOeHCZodFONVVeo2tg_-48" value="#id_transaksi" style="ellipse;whiteSpace=wrap;html=1;" parent="1" vertex="1">
          <mxGeometry x="1820" y="3920" width="160" height="80" as="geometry" />
        </mxCell>
        <mxCell id="dVOeHCZodFONVVeo2tg_-49" value="nama_pelanggan" style="ellipse;whiteSpace=wrap;html=1;" parent="1" vertex="1">
          <mxGeometry x="1895" y="4010" width="160" height="80" as="geometry" />
        </mxCell>
        <mxCell id="dVOeHCZodFONVVeo2tg_-50" value="pembayaran" style="ellipse;whiteSpace=wrap;html=1;" parent="1" vertex="1">
          <mxGeometry x="2020" y="4080" width="150" height="80" as="geometry" />
        </mxCell>
        <mxCell id="dVOeHCZodFONVVeo2tg_-51" value="total_transaksi" style="ellipse;whiteSpace=wrap;html=1;" parent="1" vertex="1">
          <mxGeometry x="2190" y="4080" width="160" height="80" as="geometry" />
        </mxCell>
        <mxCell id="dVOeHCZodFONVVeo2tg_-52" value="status_transaksi" style="ellipse;whiteSpace=wrap;html=1;" parent="1" vertex="1">
          <mxGeometry x="2335" y="4030" width="160" height="80" as="geometry" />
        </mxCell>
        <mxCell id="dVOeHCZodFONVVeo2tg_-54" value="nama_paket" style="ellipse;whiteSpace=wrap;html=1;" parent="1" vertex="1">
          <mxGeometry x="2370" y="3925" width="160" height="80" as="geometry" />
        </mxCell>
        <mxCell id="dVOeHCZodFONVVeo2tg_-55" value="" style="endArrow=none;html=1;rounded=0;entryX=0.5;entryY=1;entryDx=0;entryDy=0;exitX=0.5;exitY=0;exitDx=0;exitDy=0;" parent="1" source="dVOeHCZodFONVVeo2tg_-48" target="dVOeHCZodFONVVeo2tg_-7" edge="1">
          <mxGeometry width="50" height="50" relative="1" as="geometry">
            <mxPoint x="1146" y="660" as="sourcePoint" />
            <mxPoint x="1196" y="610" as="targetPoint" />
          </mxGeometry>
        </mxCell>
        <mxCell id="dVOeHCZodFONVVeo2tg_-56" value="" style="endArrow=none;html=1;rounded=0;entryX=0.5;entryY=1;entryDx=0;entryDy=0;exitX=0.5;exitY=0;exitDx=0;exitDy=0;" parent="1" source="dVOeHCZodFONVVeo2tg_-54" target="dVOeHCZodFONVVeo2tg_-7" edge="1">
          <mxGeometry width="50" height="50" relative="1" as="geometry">
            <mxPoint x="1066" y="650" as="sourcePoint" />
            <mxPoint x="1116" y="600" as="targetPoint" />
          </mxGeometry>
        </mxCell>
        <mxCell id="dVOeHCZodFONVVeo2tg_-57" value="" style="endArrow=none;html=1;rounded=0;entryX=0.5;entryY=1;entryDx=0;entryDy=0;exitX=0.5;exitY=0;exitDx=0;exitDy=0;" parent="1" source="dVOeHCZodFONVVeo2tg_-49" target="dVOeHCZodFONVVeo2tg_-7" edge="1">
          <mxGeometry width="50" height="50" relative="1" as="geometry">
            <mxPoint x="1146" y="660" as="sourcePoint" />
            <mxPoint x="1196" y="610" as="targetPoint" />
          </mxGeometry>
        </mxCell>
        <mxCell id="dVOeHCZodFONVVeo2tg_-60" value="" style="endArrow=none;html=1;rounded=0;exitX=0.5;exitY=0;exitDx=0;exitDy=0;entryX=0.5;entryY=1;entryDx=0;entryDy=0;" parent="1" source="dVOeHCZodFONVVeo2tg_-50" target="dVOeHCZodFONVVeo2tg_-7" edge="1">
          <mxGeometry width="50" height="50" relative="1" as="geometry">
            <mxPoint x="1146" y="660" as="sourcePoint" />
            <mxPoint x="1036" y="550" as="targetPoint" />
          </mxGeometry>
        </mxCell>
        <mxCell id="dVOeHCZodFONVVeo2tg_-61" value="" style="endArrow=none;html=1;rounded=0;entryX=0.5;entryY=1;entryDx=0;entryDy=0;exitX=0.5;exitY=0;exitDx=0;exitDy=0;" parent="1" source="dVOeHCZodFONVVeo2tg_-51" target="dVOeHCZodFONVVeo2tg_-7" edge="1">
          <mxGeometry width="50" height="50" relative="1" as="geometry">
            <mxPoint x="1146" y="660" as="sourcePoint" />
            <mxPoint x="1196" y="610" as="targetPoint" />
          </mxGeometry>
        </mxCell>
        <mxCell id="dVOeHCZodFONVVeo2tg_-62" value="" style="endArrow=none;html=1;rounded=0;exitX=0.5;exitY=0;exitDx=0;exitDy=0;entryX=0.5;entryY=1;entryDx=0;entryDy=0;" parent="1" source="dVOeHCZodFONVVeo2tg_-52" target="dVOeHCZodFONVVeo2tg_-7" edge="1">
          <mxGeometry width="50" height="50" relative="1" as="geometry">
            <mxPoint x="1146" y="660" as="sourcePoint" />
            <mxPoint x="1106" y="550" as="targetPoint" />
          </mxGeometry>
        </mxCell>
        <mxCell id="dVOeHCZodFONVVeo2tg_-63" value="nama_paket" style="ellipse;whiteSpace=wrap;html=1;" parent="1" vertex="1">
          <mxGeometry x="2646" y="4360" width="160" height="80" as="geometry" />
        </mxCell>
        <mxCell id="dVOeHCZodFONVVeo2tg_-64" value="jumlah_transaksi" style="ellipse;whiteSpace=wrap;html=1;" parent="1" vertex="1">
          <mxGeometry x="2726" y="4460" width="160" height="80" as="geometry" />
        </mxCell>
        <mxCell id="aEyc14tu9C3hR04fVkb9-16" value="tanggal_transaksi" style="ellipse;whiteSpace=wrap;html=1;" parent="1" vertex="1">
          <mxGeometry x="2906" y="4460" width="150" height="80" as="geometry" />
        </mxCell>
        <mxCell id="aEyc14tu9C3hR04fVkb9-17" value="total_transaksi" style="ellipse;whiteSpace=wrap;html=1;" parent="1" vertex="1">
          <mxGeometry x="2986" y="4370" width="150" height="80" as="geometry" />
        </mxCell>
        <mxCell id="aEyc14tu9C3hR04fVkb9-18" value="" style="endArrow=none;html=1;rounded=0;exitX=0.5;exitY=1;exitDx=0;exitDy=0;entryX=0.5;entryY=0;entryDx=0;entryDy=0;" parent="1" source="dVOeHCZodFONVVeo2tg_-8" target="aEyc14tu9C3hR04fVkb9-16" edge="1">
          <mxGeometry width="50" height="50" relative="1" as="geometry">
            <mxPoint x="4636" y="380" as="sourcePoint" />
            <mxPoint x="4686" y="330" as="targetPoint" />
          </mxGeometry>
        </mxCell>
        <mxCell id="aEyc14tu9C3hR04fVkb9-19" value="" style="endArrow=none;html=1;rounded=0;entryX=0.5;entryY=1;entryDx=0;entryDy=0;exitX=0.5;exitY=0;exitDx=0;exitDy=0;" parent="1" source="dVOeHCZodFONVVeo2tg_-64" target="dVOeHCZodFONVVeo2tg_-8" edge="1">
          <mxGeometry width="50" height="50" relative="1" as="geometry">
            <mxPoint x="4636" y="380" as="sourcePoint" />
            <mxPoint x="4686" y="330" as="targetPoint" />
          </mxGeometry>
        </mxCell>
        <mxCell id="aEyc14tu9C3hR04fVkb9-20" value="" style="endArrow=none;html=1;rounded=0;entryX=0.5;entryY=1;entryDx=0;entryDy=0;exitX=0.5;exitY=0;exitDx=0;exitDy=0;" parent="1" source="aEyc14tu9C3hR04fVkb9-17" target="dVOeHCZodFONVVeo2tg_-8" edge="1">
          <mxGeometry width="50" height="50" relative="1" as="geometry">
            <mxPoint x="4636" y="380" as="sourcePoint" />
            <mxPoint x="4686" y="330" as="targetPoint" />
          </mxGeometry>
        </mxCell>
        <mxCell id="aEyc14tu9C3hR04fVkb9-21" value="" style="endArrow=none;html=1;rounded=0;entryX=0.5;entryY=1;entryDx=0;entryDy=0;exitX=0.5;exitY=0;exitDx=0;exitDy=0;" parent="1" source="dVOeHCZodFONVVeo2tg_-63" target="dVOeHCZodFONVVeo2tg_-8" edge="1">
          <mxGeometry width="50" height="50" relative="1" as="geometry">
            <mxPoint x="4636" y="380" as="sourcePoint" />
            <mxPoint x="4686" y="330" as="targetPoint" />
          </mxGeometry>
        </mxCell>
        <mxCell id="aEyc14tu9C3hR04fVkb9-22" value="ADMIN" style="rounded=0;whiteSpace=wrap;html=1;" parent="1" vertex="1">
          <mxGeometry x="821" y="3615" width="160" height="70" as="geometry" />
        </mxCell>
        <mxCell id="aEyc14tu9C3hR04fVkb9-25" value="no_telepon" style="ellipse;whiteSpace=wrap;html=1;" parent="1" vertex="1">
          <mxGeometry x="1086" y="3715" width="160" height="80" as="geometry" />
        </mxCell>
        <mxCell id="aEyc14tu9C3hR04fVkb9-26" value="email" style="ellipse;whiteSpace=wrap;html=1;" parent="1" vertex="1">
          <mxGeometry x="1056" y="3815" width="160" height="80" as="geometry" />
        </mxCell>
        <mxCell id="aEyc14tu9C3hR04fVkb9-27" value="alamat" style="ellipse;whiteSpace=wrap;html=1;" parent="1" vertex="1">
          <mxGeometry x="956" y="3905" width="160" height="80" as="geometry" />
        </mxCell>
        <mxCell id="aEyc14tu9C3hR04fVkb9-28" value="nama_admin" style="ellipse;whiteSpace=wrap;html=1;" parent="1" vertex="1">
          <mxGeometry x="821" y="3965" width="160" height="80" as="geometry" />
        </mxCell>
        <mxCell id="aEyc14tu9C3hR04fVkb9-29" value="password" style="ellipse;whiteSpace=wrap;html=1;" parent="1" vertex="1">
          <mxGeometry x="676" y="3905" width="160" height="80" as="geometry" />
        </mxCell>
        <mxCell id="aEyc14tu9C3hR04fVkb9-30" value="username" style="ellipse;whiteSpace=wrap;html=1;" parent="1" vertex="1">
          <mxGeometry x="591" y="3815" width="160" height="80" as="geometry" />
        </mxCell>
        <mxCell id="aEyc14tu9C3hR04fVkb9-31" value="#id_admin" style="ellipse;whiteSpace=wrap;html=1;" parent="1" vertex="1">
          <mxGeometry x="556" y="3715" width="160" height="80" as="geometry" />
        </mxCell>
        <mxCell id="aEyc14tu9C3hR04fVkb9-34" value="" style="endArrow=none;html=1;rounded=0;entryX=0.5;entryY=1;entryDx=0;entryDy=0;exitX=0.5;exitY=0;exitDx=0;exitDy=0;" parent="1" source="aEyc14tu9C3hR04fVkb9-31" target="aEyc14tu9C3hR04fVkb9-22" edge="1">
          <mxGeometry width="50" height="50" relative="1" as="geometry">
            <mxPoint x="1696" y="440" as="sourcePoint" />
            <mxPoint x="1746" y="390" as="targetPoint" />
          </mxGeometry>
        </mxCell>
        <mxCell id="aEyc14tu9C3hR04fVkb9-35" value="" style="endArrow=none;html=1;rounded=0;exitX=0.5;exitY=0;exitDx=0;exitDy=0;entryX=0.5;entryY=1;entryDx=0;entryDy=0;" parent="1" source="aEyc14tu9C3hR04fVkb9-25" target="aEyc14tu9C3hR04fVkb9-22" edge="1">
          <mxGeometry width="50" height="50" relative="1" as="geometry">
            <mxPoint x="1696" y="440" as="sourcePoint" />
            <mxPoint x="1926" y="310" as="targetPoint" />
          </mxGeometry>
        </mxCell>
        <mxCell id="aEyc14tu9C3hR04fVkb9-36" value="" style="endArrow=none;html=1;rounded=0;entryX=0.5;entryY=1;entryDx=0;entryDy=0;exitX=0.5;exitY=0;exitDx=0;exitDy=0;" parent="1" source="aEyc14tu9C3hR04fVkb9-27" target="aEyc14tu9C3hR04fVkb9-22" edge="1">
          <mxGeometry width="50" height="50" relative="1" as="geometry">
            <mxPoint x="1696" y="440" as="sourcePoint" />
            <mxPoint x="1746" y="390" as="targetPoint" />
          </mxGeometry>
        </mxCell>
        <mxCell id="aEyc14tu9C3hR04fVkb9-37" value="" style="endArrow=none;html=1;rounded=0;exitX=0.5;exitY=0;exitDx=0;exitDy=0;entryX=0.5;entryY=1;entryDx=0;entryDy=0;" parent="1" source="aEyc14tu9C3hR04fVkb9-29" target="aEyc14tu9C3hR04fVkb9-22" edge="1">
          <mxGeometry width="50" height="50" relative="1" as="geometry">
            <mxPoint x="1696" y="440" as="sourcePoint" />
            <mxPoint x="1736" y="3750" as="targetPoint" />
          </mxGeometry>
        </mxCell>
        <mxCell id="aEyc14tu9C3hR04fVkb9-38" value="" style="endArrow=none;html=1;rounded=0;entryX=0.5;entryY=1;entryDx=0;entryDy=0;exitX=0.5;exitY=0;exitDx=0;exitDy=0;" parent="1" source="aEyc14tu9C3hR04fVkb9-28" target="aEyc14tu9C3hR04fVkb9-22" edge="1">
          <mxGeometry width="50" height="50" relative="1" as="geometry">
            <mxPoint x="1696" y="440" as="sourcePoint" />
            <mxPoint x="1746" y="390" as="targetPoint" />
          </mxGeometry>
        </mxCell>
        <mxCell id="aEyc14tu9C3hR04fVkb9-39" value="" style="endArrow=none;html=1;rounded=0;entryX=0.5;entryY=1;entryDx=0;entryDy=0;exitX=0.5;exitY=0;exitDx=0;exitDy=0;" parent="1" source="aEyc14tu9C3hR04fVkb9-30" target="aEyc14tu9C3hR04fVkb9-22" edge="1">
          <mxGeometry width="50" height="50" relative="1" as="geometry">
            <mxPoint x="1696" y="440" as="sourcePoint" />
            <mxPoint x="1646" y="420" as="targetPoint" />
          </mxGeometry>
        </mxCell>
        <mxCell id="aEyc14tu9C3hR04fVkb9-40" value="" style="endArrow=none;html=1;rounded=0;entryX=0.5;entryY=1;entryDx=0;entryDy=0;exitX=0.5;exitY=0;exitDx=0;exitDy=0;" parent="1" source="aEyc14tu9C3hR04fVkb9-26" target="aEyc14tu9C3hR04fVkb9-22" edge="1">
          <mxGeometry width="50" height="50" relative="1" as="geometry">
            <mxPoint x="1696" y="440" as="sourcePoint" />
            <mxPoint x="1746" y="390" as="targetPoint" />
          </mxGeometry>
        </mxCell>
        <mxCell id="aEyc14tu9C3hR04fVkb9-65" value="KASIR" style="rounded=0;whiteSpace=wrap;html=1;" parent="1" vertex="1">
          <mxGeometry x="2826" y="3685" width="160" height="70" as="geometry" />
        </mxCell>
        <mxCell id="aEyc14tu9C3hR04fVkb9-66" value="no_telepon" style="ellipse;whiteSpace=wrap;html=1;" parent="1" vertex="1">
          <mxGeometry x="3096" y="3810" width="160" height="80" as="geometry" />
        </mxCell>
        <mxCell id="aEyc14tu9C3hR04fVkb9-67" value="email" style="ellipse;whiteSpace=wrap;html=1;" parent="1" vertex="1">
          <mxGeometry x="3046" y="3900" width="160" height="80" as="geometry" />
        </mxCell>
        <mxCell id="aEyc14tu9C3hR04fVkb9-68" value="alamat" style="ellipse;whiteSpace=wrap;html=1;" parent="1" vertex="1">
          <mxGeometry x="2946" y="3970" width="160" height="80" as="geometry" />
        </mxCell>
        <mxCell id="aEyc14tu9C3hR04fVkb9-69" value="nama_kasir" style="ellipse;whiteSpace=wrap;html=1;" parent="1" vertex="1">
          <mxGeometry x="2821" y="4040" width="160" height="80" as="geometry" />
        </mxCell>
        <mxCell id="aEyc14tu9C3hR04fVkb9-70" value="password" style="ellipse;whiteSpace=wrap;html=1;" parent="1" vertex="1">
          <mxGeometry x="2696" y="3970" width="160" height="80" as="geometry" />
        </mxCell>
        <mxCell id="aEyc14tu9C3hR04fVkb9-71" value="username" style="ellipse;whiteSpace=wrap;html=1;" parent="1" vertex="1">
          <mxGeometry x="2601" y="3890" width="160" height="80" as="geometry" />
        </mxCell>
        <mxCell id="aEyc14tu9C3hR04fVkb9-72" value="#id_kasir" style="ellipse;whiteSpace=wrap;html=1;" parent="1" vertex="1">
          <mxGeometry x="2576" y="3790" width="160" height="80" as="geometry" />
        </mxCell>
        <mxCell id="aEyc14tu9C3hR04fVkb9-73" value="" style="endArrow=none;html=1;rounded=0;entryX=0.5;entryY=1;entryDx=0;entryDy=0;exitX=0.5;exitY=0;exitDx=0;exitDy=0;" parent="1" source="aEyc14tu9C3hR04fVkb9-72" target="aEyc14tu9C3hR04fVkb9-65" edge="1">
          <mxGeometry width="50" height="50" relative="1" as="geometry">
            <mxPoint x="2576" y="595" as="sourcePoint" />
            <mxPoint x="2626" y="545" as="targetPoint" />
          </mxGeometry>
        </mxCell>
        <mxCell id="aEyc14tu9C3hR04fVkb9-74" value="" style="endArrow=none;html=1;rounded=0;exitX=0.5;exitY=0;exitDx=0;exitDy=0;entryX=0.5;entryY=1;entryDx=0;entryDy=0;" parent="1" source="aEyc14tu9C3hR04fVkb9-66" target="aEyc14tu9C3hR04fVkb9-65" edge="1">
          <mxGeometry width="50" height="50" relative="1" as="geometry">
            <mxPoint x="2576" y="595" as="sourcePoint" />
            <mxPoint x="2806" y="465" as="targetPoint" />
          </mxGeometry>
        </mxCell>
        <mxCell id="aEyc14tu9C3hR04fVkb9-75" value="" style="endArrow=none;html=1;rounded=0;entryX=0.5;entryY=1;entryDx=0;entryDy=0;exitX=0.5;exitY=0;exitDx=0;exitDy=0;" parent="1" source="aEyc14tu9C3hR04fVkb9-68" target="aEyc14tu9C3hR04fVkb9-65" edge="1">
          <mxGeometry width="50" height="50" relative="1" as="geometry">
            <mxPoint x="2576" y="595" as="sourcePoint" />
            <mxPoint x="2626" y="545" as="targetPoint" />
          </mxGeometry>
        </mxCell>
        <mxCell id="aEyc14tu9C3hR04fVkb9-76" value="" style="endArrow=none;html=1;rounded=0;entryX=0.5;entryY=1;entryDx=0;entryDy=0;exitX=0.5;exitY=0;exitDx=0;exitDy=0;" parent="1" source="aEyc14tu9C3hR04fVkb9-70" target="aEyc14tu9C3hR04fVkb9-65" edge="1">
          <mxGeometry width="50" height="50" relative="1" as="geometry">
            <mxPoint x="2576" y="595" as="sourcePoint" />
            <mxPoint x="2626" y="545" as="targetPoint" />
          </mxGeometry>
        </mxCell>
        <mxCell id="aEyc14tu9C3hR04fVkb9-77" value="" style="endArrow=none;html=1;rounded=0;entryX=0.5;entryY=1;entryDx=0;entryDy=0;exitX=0.5;exitY=0;exitDx=0;exitDy=0;" parent="1" source="aEyc14tu9C3hR04fVkb9-69" target="aEyc14tu9C3hR04fVkb9-65" edge="1">
          <mxGeometry width="50" height="50" relative="1" as="geometry">
            <mxPoint x="2576" y="595" as="sourcePoint" />
            <mxPoint x="2626" y="545" as="targetPoint" />
          </mxGeometry>
        </mxCell>
        <mxCell id="aEyc14tu9C3hR04fVkb9-78" value="" style="endArrow=none;html=1;rounded=0;entryX=0.5;entryY=1;entryDx=0;entryDy=0;exitX=0.5;exitY=0;exitDx=0;exitDy=0;" parent="1" source="aEyc14tu9C3hR04fVkb9-71" target="aEyc14tu9C3hR04fVkb9-65" edge="1">
          <mxGeometry width="50" height="50" relative="1" as="geometry">
            <mxPoint x="2576" y="595" as="sourcePoint" />
            <mxPoint x="2526" y="575" as="targetPoint" />
          </mxGeometry>
        </mxCell>
        <mxCell id="aEyc14tu9C3hR04fVkb9-79" value="" style="endArrow=none;html=1;rounded=0;entryX=0.5;entryY=1;entryDx=0;entryDy=0;exitX=0.5;exitY=0;exitDx=0;exitDy=0;" parent="1" source="aEyc14tu9C3hR04fVkb9-67" target="aEyc14tu9C3hR04fVkb9-65" edge="1">
          <mxGeometry width="50" height="50" relative="1" as="geometry">
            <mxPoint x="2576" y="595" as="sourcePoint" />
            <mxPoint x="2626" y="545" as="targetPoint" />
          </mxGeometry>
        </mxCell>
        <mxCell id="aEyc14tu9C3hR04fVkb9-80" value="OWNER" style="rounded=0;whiteSpace=wrap;html=1;" parent="1" vertex="1">
          <mxGeometry x="3751" y="3640" width="160" height="70" as="geometry" />
        </mxCell>
        <mxCell id="aEyc14tu9C3hR04fVkb9-81" value="no_telepon" style="ellipse;whiteSpace=wrap;html=1;" parent="1" vertex="1">
          <mxGeometry x="4006" y="3735" width="160" height="80" as="geometry" />
        </mxCell>
        <mxCell id="aEyc14tu9C3hR04fVkb9-82" value="email" style="ellipse;whiteSpace=wrap;html=1;" parent="1" vertex="1">
          <mxGeometry x="3976" y="3835" width="160" height="80" as="geometry" />
        </mxCell>
        <mxCell id="aEyc14tu9C3hR04fVkb9-83" value="alamat" style="ellipse;whiteSpace=wrap;html=1;" parent="1" vertex="1">
          <mxGeometry x="3906" y="3930" width="160" height="80" as="geometry" />
        </mxCell>
        <mxCell id="aEyc14tu9C3hR04fVkb9-84" value="nama_owner" style="ellipse;whiteSpace=wrap;html=1;" parent="1" vertex="1">
          <mxGeometry x="3751" y="3980" width="160" height="80" as="geometry" />
        </mxCell>
        <mxCell id="aEyc14tu9C3hR04fVkb9-85" value="password" style="ellipse;whiteSpace=wrap;html=1;" parent="1" vertex="1">
          <mxGeometry x="3626" y="3915" width="160" height="80" as="geometry" />
        </mxCell>
        <mxCell id="aEyc14tu9C3hR04fVkb9-86" value="username" style="ellipse;whiteSpace=wrap;html=1;" parent="1" vertex="1">
          <mxGeometry x="3536" y="3830" width="160" height="80" as="geometry" />
        </mxCell>
        <mxCell id="aEyc14tu9C3hR04fVkb9-87" value="#id_owner" style="ellipse;whiteSpace=wrap;html=1;" parent="1" vertex="1">
          <mxGeometry x="3506" y="3735" width="160" height="80" as="geometry" />
        </mxCell>
        <mxCell id="aEyc14tu9C3hR04fVkb9-88" value="" style="endArrow=none;html=1;rounded=0;entryX=0.5;entryY=1;entryDx=0;entryDy=0;exitX=0.5;exitY=0;exitDx=0;exitDy=0;" parent="1" source="aEyc14tu9C3hR04fVkb9-87" target="aEyc14tu9C3hR04fVkb9-80" edge="1">
          <mxGeometry width="50" height="50" relative="1" as="geometry">
            <mxPoint x="1706" y="1040" as="sourcePoint" />
            <mxPoint x="1756" y="990" as="targetPoint" />
          </mxGeometry>
        </mxCell>
        <mxCell id="aEyc14tu9C3hR04fVkb9-89" value="" style="endArrow=none;html=1;rounded=0;exitX=0.5;exitY=0;exitDx=0;exitDy=0;entryX=0.5;entryY=1;entryDx=0;entryDy=0;" parent="1" source="aEyc14tu9C3hR04fVkb9-81" target="aEyc14tu9C3hR04fVkb9-80" edge="1">
          <mxGeometry width="50" height="50" relative="1" as="geometry">
            <mxPoint x="1706" y="1040" as="sourcePoint" />
            <mxPoint x="1936" y="910" as="targetPoint" />
          </mxGeometry>
        </mxCell>
        <mxCell id="aEyc14tu9C3hR04fVkb9-90" value="" style="endArrow=none;html=1;rounded=0;entryX=0.5;entryY=1;entryDx=0;entryDy=0;exitX=0.5;exitY=0;exitDx=0;exitDy=0;" parent="1" source="aEyc14tu9C3hR04fVkb9-83" target="aEyc14tu9C3hR04fVkb9-80" edge="1">
          <mxGeometry width="50" height="50" relative="1" as="geometry">
            <mxPoint x="1706" y="1040" as="sourcePoint" />
            <mxPoint x="1756" y="990" as="targetPoint" />
          </mxGeometry>
        </mxCell>
        <mxCell id="aEyc14tu9C3hR04fVkb9-91" value="" style="endArrow=none;html=1;rounded=0;entryX=0.5;entryY=1;entryDx=0;entryDy=0;exitX=0.5;exitY=0;exitDx=0;exitDy=0;" parent="1" source="aEyc14tu9C3hR04fVkb9-85" target="aEyc14tu9C3hR04fVkb9-80" edge="1">
          <mxGeometry width="50" height="50" relative="1" as="geometry">
            <mxPoint x="1706" y="1040" as="sourcePoint" />
            <mxPoint x="1756" y="990" as="targetPoint" />
          </mxGeometry>
        </mxCell>
        <mxCell id="aEyc14tu9C3hR04fVkb9-92" value="" style="endArrow=none;html=1;rounded=0;entryX=0.5;entryY=1;entryDx=0;entryDy=0;exitX=0.5;exitY=0;exitDx=0;exitDy=0;" parent="1" source="aEyc14tu9C3hR04fVkb9-84" target="aEyc14tu9C3hR04fVkb9-80" edge="1">
          <mxGeometry width="50" height="50" relative="1" as="geometry">
            <mxPoint x="1706" y="1040" as="sourcePoint" />
            <mxPoint x="1756" y="990" as="targetPoint" />
          </mxGeometry>
        </mxCell>
        <mxCell id="aEyc14tu9C3hR04fVkb9-93" value="" style="endArrow=none;html=1;rounded=0;entryX=0.5;entryY=1;entryDx=0;entryDy=0;exitX=0.5;exitY=0;exitDx=0;exitDy=0;" parent="1" source="aEyc14tu9C3hR04fVkb9-86" target="aEyc14tu9C3hR04fVkb9-80" edge="1">
          <mxGeometry width="50" height="50" relative="1" as="geometry">
            <mxPoint x="1706" y="1040" as="sourcePoint" />
            <mxPoint x="1656" y="1020" as="targetPoint" />
          </mxGeometry>
        </mxCell>
        <mxCell id="aEyc14tu9C3hR04fVkb9-94" value="" style="endArrow=none;html=1;rounded=0;entryX=0.5;entryY=1;entryDx=0;entryDy=0;exitX=0.5;exitY=0;exitDx=0;exitDy=0;" parent="1" source="aEyc14tu9C3hR04fVkb9-82" target="aEyc14tu9C3hR04fVkb9-80" edge="1">
          <mxGeometry width="50" height="50" relative="1" as="geometry">
            <mxPoint x="1706" y="1040" as="sourcePoint" />
            <mxPoint x="1756" y="990" as="targetPoint" />
          </mxGeometry>
        </mxCell>
        <mxCell id="aEyc14tu9C3hR04fVkb9-116" style="edgeStyle=orthogonalEdgeStyle;rounded=0;orthogonalLoop=1;jettySize=auto;html=1;exitX=0.5;exitY=1;exitDx=0;exitDy=0;" parent="1" source="aEyc14tu9C3hR04fVkb9-69" target="aEyc14tu9C3hR04fVkb9-69" edge="1">
          <mxGeometry relative="1" as="geometry" />
        </mxCell>
        <mxCell id="aEyc14tu9C3hR04fVkb9-118" style="edgeStyle=orthogonalEdgeStyle;rounded=0;orthogonalLoop=1;jettySize=auto;html=1;exitX=0.5;exitY=1;exitDx=0;exitDy=0;" parent="1" source="aEyc14tu9C3hR04fVkb9-84" target="aEyc14tu9C3hR04fVkb9-84" edge="1">
          <mxGeometry relative="1" as="geometry" />
        </mxCell>
        <mxCell id="aEyc14tu9C3hR04fVkb9-119" style="edgeStyle=orthogonalEdgeStyle;rounded=0;orthogonalLoop=1;jettySize=auto;html=1;exitX=0.5;exitY=1;exitDx=0;exitDy=0;" parent="1" source="aEyc14tu9C3hR04fVkb9-28" target="aEyc14tu9C3hR04fVkb9-28" edge="1">
          <mxGeometry relative="1" as="geometry" />
        </mxCell>
        <mxCell id="aEyc14tu9C3hR04fVkb9-120" style="edgeStyle=orthogonalEdgeStyle;rounded=0;orthogonalLoop=1;jettySize=auto;html=1;exitX=0.5;exitY=1;exitDx=0;exitDy=0;" parent="1" source="aEyc14tu9C3hR04fVkb9-71" target="aEyc14tu9C3hR04fVkb9-71" edge="1">
          <mxGeometry relative="1" as="geometry" />
        </mxCell>
        <mxCell id="aEyc14tu9C3hR04fVkb9-173" value="terdapat" style="rhombus;whiteSpace=wrap;html=1;" parent="1" vertex="1">
          <mxGeometry x="966" y="3260" width="135" height="80" as="geometry" />
        </mxCell>
        <mxCell id="aEyc14tu9C3hR04fVkb9-174" value="" style="endArrow=none;html=1;rounded=0;exitX=0.5;exitY=0;exitDx=0;exitDy=0;entryX=0;entryY=0.5;entryDx=0;entryDy=0;" parent="1" source="aEyc14tu9C3hR04fVkb9-22" target="aEyc14tu9C3hR04fVkb9-173" edge="1">
          <mxGeometry width="50" height="50" relative="1" as="geometry">
            <mxPoint x="1876" y="3680" as="sourcePoint" />
            <mxPoint x="1168.5" y="3360" as="targetPoint" />
            <Array as="points">
              <mxPoint x="901" y="3300" />
            </Array>
          </mxGeometry>
        </mxCell>
        <mxCell id="aEyc14tu9C3hR04fVkb9-264" value="1" style="edgeLabel;html=1;align=center;verticalAlign=middle;resizable=0;points=[];" parent="aEyc14tu9C3hR04fVkb9-174" vertex="1" connectable="0">
          <mxGeometry x="-0.9313" y="-1" relative="1" as="geometry">
            <mxPoint x="3" y="-1" as="offset" />
          </mxGeometry>
        </mxCell>
        <mxCell id="aEyc14tu9C3hR04fVkb9-175" value="" style="endArrow=none;html=1;rounded=0;exitX=1;exitY=0.5;exitDx=0;exitDy=0;entryX=0;entryY=0.5;entryDx=0;entryDy=0;" parent="1" source="aEyc14tu9C3hR04fVkb9-173" target="dVOeHCZodFONVVeo2tg_-3" edge="1">
          <mxGeometry width="50" height="50" relative="1" as="geometry">
            <mxPoint x="2056" y="3680" as="sourcePoint" />
            <mxPoint x="2106" y="3630" as="targetPoint" />
          </mxGeometry>
        </mxCell>
        <mxCell id="aEyc14tu9C3hR04fVkb9-265" value="M" style="edgeLabel;html=1;align=center;verticalAlign=middle;resizable=0;points=[];" parent="aEyc14tu9C3hR04fVkb9-175" vertex="1" connectable="0">
          <mxGeometry x="0.9356" y="-1" relative="1" as="geometry">
            <mxPoint x="2" y="-9" as="offset" />
          </mxGeometry>
        </mxCell>
        <mxCell id="aEyc14tu9C3hR04fVkb9-176" value="" style="endArrow=none;html=1;rounded=0;exitX=0.25;exitY=0;exitDx=0;exitDy=0;entryX=1;entryY=0.5;entryDx=0;entryDy=0;" parent="1" source="aEyc14tu9C3hR04fVkb9-65" target="aEyc14tu9C3hR04fVkb9-177" edge="1">
          <mxGeometry width="50" height="50" relative="1" as="geometry">
            <mxPoint x="2056" y="3680" as="sourcePoint" />
            <mxPoint x="2106" y="3630" as="targetPoint" />
            <Array as="points">
              <mxPoint x="2866" y="3300" />
            </Array>
          </mxGeometry>
        </mxCell>
        <mxCell id="aEyc14tu9C3hR04fVkb9-266" value="M" style="edgeLabel;html=1;align=center;verticalAlign=middle;resizable=0;points=[];" parent="aEyc14tu9C3hR04fVkb9-176" vertex="1" connectable="0">
          <mxGeometry x="-0.8928" y="-1" relative="1" as="geometry">
            <mxPoint x="5" y="4" as="offset" />
          </mxGeometry>
        </mxCell>
        <mxCell id="aEyc14tu9C3hR04fVkb9-177" value="mengisi" style="rhombus;whiteSpace=wrap;html=1;" parent="1" vertex="1">
          <mxGeometry x="2676" y="3260" width="125" height="80" as="geometry" />
        </mxCell>
        <mxCell id="aEyc14tu9C3hR04fVkb9-178" value="" style="endArrow=none;html=1;rounded=0;entryX=0;entryY=0.5;entryDx=0;entryDy=0;exitX=1;exitY=0.5;exitDx=0;exitDy=0;" parent="1" source="dVOeHCZodFONVVeo2tg_-3" target="aEyc14tu9C3hR04fVkb9-177" edge="1">
          <mxGeometry width="50" height="50" relative="1" as="geometry">
            <mxPoint x="2056" y="3680" as="sourcePoint" />
            <mxPoint x="2106" y="3630" as="targetPoint" />
          </mxGeometry>
        </mxCell>
        <mxCell id="aEyc14tu9C3hR04fVkb9-267" value="M" style="edgeLabel;html=1;align=center;verticalAlign=middle;resizable=0;points=[];" parent="aEyc14tu9C3hR04fVkb9-178" vertex="1" connectable="0">
          <mxGeometry x="-0.919" y="1" relative="1" as="geometry">
            <mxPoint y="-7" as="offset" />
          </mxGeometry>
        </mxCell>
        <mxCell id="aEyc14tu9C3hR04fVkb9-185" value="terdapat" style="rhombus;whiteSpace=wrap;html=1;" parent="1" vertex="1">
          <mxGeometry x="1946" y="3680" width="150" height="80" as="geometry" />
        </mxCell>
        <mxCell id="aEyc14tu9C3hR04fVkb9-186" value="" style="endArrow=none;html=1;rounded=0;exitX=1;exitY=0.5;exitDx=0;exitDy=0;entryX=0.25;entryY=0;entryDx=0;entryDy=0;" parent="1" source="aEyc14tu9C3hR04fVkb9-185" target="dVOeHCZodFONVVeo2tg_-7" edge="1">
          <mxGeometry width="50" height="50" relative="1" as="geometry">
            <mxPoint x="2256" y="3720" as="sourcePoint" />
            <mxPoint x="2306" y="3670" as="targetPoint" />
            <Array as="points">
              <mxPoint x="2131" y="3720" />
            </Array>
          </mxGeometry>
        </mxCell>
        <mxCell id="aEyc14tu9C3hR04fVkb9-277" value="M" style="edgeLabel;html=1;align=center;verticalAlign=middle;resizable=0;points=[];" parent="aEyc14tu9C3hR04fVkb9-186" vertex="1" connectable="0">
          <mxGeometry x="0.7716" relative="1" as="geometry">
            <mxPoint x="6" as="offset" />
          </mxGeometry>
        </mxCell>
        <mxCell id="aEyc14tu9C3hR04fVkb9-188" value="mengisi" style="rhombus;whiteSpace=wrap;html=1;" parent="1" vertex="1">
          <mxGeometry x="2276" y="3680" width="150" height="80" as="geometry" />
        </mxCell>
        <mxCell id="aEyc14tu9C3hR04fVkb9-189" value="" style="endArrow=none;html=1;rounded=0;entryX=0;entryY=0.5;entryDx=0;entryDy=0;exitX=1;exitY=0.5;exitDx=0;exitDy=0;" parent="1" source="aEyc14tu9C3hR04fVkb9-188" target="aEyc14tu9C3hR04fVkb9-65" edge="1">
          <mxGeometry width="50" height="50" relative="1" as="geometry">
            <mxPoint x="2286" y="3720" as="sourcePoint" />
            <mxPoint x="2336" y="3670" as="targetPoint" />
            <Array as="points" />
          </mxGeometry>
        </mxCell>
        <mxCell id="aEyc14tu9C3hR04fVkb9-278" value="M" style="edgeLabel;html=1;align=center;verticalAlign=middle;resizable=0;points=[];" parent="aEyc14tu9C3hR04fVkb9-189" vertex="1" connectable="0">
          <mxGeometry x="0.8445" y="-2" relative="1" as="geometry">
            <mxPoint x="12" y="-11" as="offset" />
          </mxGeometry>
        </mxCell>
        <mxCell id="aEyc14tu9C3hR04fVkb9-190" value="" style="endArrow=none;html=1;rounded=0;entryX=0;entryY=0.5;entryDx=0;entryDy=0;exitX=0.682;exitY=-0.014;exitDx=0;exitDy=0;exitPerimeter=0;" parent="1" source="dVOeHCZodFONVVeo2tg_-7" target="aEyc14tu9C3hR04fVkb9-188" edge="1">
          <mxGeometry width="50" height="50" relative="1" as="geometry">
            <mxPoint x="2106" y="3720" as="sourcePoint" />
            <mxPoint x="2156" y="3670" as="targetPoint" />
            <Array as="points">
              <mxPoint x="2217" y="3720" />
            </Array>
          </mxGeometry>
        </mxCell>
        <mxCell id="aEyc14tu9C3hR04fVkb9-279" value="M" style="edgeLabel;html=1;align=center;verticalAlign=middle;resizable=0;points=[];" parent="aEyc14tu9C3hR04fVkb9-190" vertex="1" connectable="0">
          <mxGeometry x="-0.7556" y="-4" relative="1" as="geometry">
            <mxPoint x="3" y="5" as="offset" />
          </mxGeometry>
        </mxCell>
        <mxCell id="aEyc14tu9C3hR04fVkb9-192" value="" style="endArrow=none;html=1;rounded=0;exitX=0.25;exitY=0;exitDx=0;exitDy=0;entryX=0;entryY=0.5;entryDx=0;entryDy=0;" parent="1" source="aEyc14tu9C3hR04fVkb9-22" target="aEyc14tu9C3hR04fVkb9-196" edge="1">
          <mxGeometry width="50" height="50" relative="1" as="geometry">
            <mxPoint x="1416" y="3660" as="sourcePoint" />
            <mxPoint x="1151" y="3250" as="targetPoint" />
            <Array as="points">
              <mxPoint x="861" y="3580" />
              <mxPoint x="861" y="3180" />
            </Array>
          </mxGeometry>
        </mxCell>
        <mxCell id="aEyc14tu9C3hR04fVkb9-254" value="1" style="edgeLabel;html=1;align=center;verticalAlign=middle;resizable=0;points=[];" parent="aEyc14tu9C3hR04fVkb9-192" vertex="1" connectable="0">
          <mxGeometry x="-0.9453" relative="1" as="geometry">
            <mxPoint x="4" y="1" as="offset" />
          </mxGeometry>
        </mxCell>
        <mxCell id="aEyc14tu9C3hR04fVkb9-193" value="" style="endArrow=none;html=1;rounded=0;entryX=0.5;entryY=1;entryDx=0;entryDy=0;exitX=0.5;exitY=0;exitDx=0;exitDy=0;" parent="1" source="aEyc14tu9C3hR04fVkb9-194" target="dVOeHCZodFONVVeo2tg_-1" edge="1">
          <mxGeometry width="50" height="50" relative="1" as="geometry">
            <mxPoint x="2966" y="3490" as="sourcePoint" />
            <mxPoint x="2676" y="3510" as="targetPoint" />
          </mxGeometry>
        </mxCell>
        <mxCell id="aEyc14tu9C3hR04fVkb9-252" value="1" style="edgeLabel;html=1;align=center;verticalAlign=middle;resizable=0;points=[];" parent="aEyc14tu9C3hR04fVkb9-193" vertex="1" connectable="0">
          <mxGeometry x="0.8173" y="1" relative="1" as="geometry">
            <mxPoint x="5" as="offset" />
          </mxGeometry>
        </mxCell>
        <mxCell id="aEyc14tu9C3hR04fVkb9-194" value="melakukan" style="rhombus;whiteSpace=wrap;html=1;" parent="1" vertex="1">
          <mxGeometry x="2876" y="3400" width="140" height="80" as="geometry" />
        </mxCell>
        <mxCell id="aEyc14tu9C3hR04fVkb9-195" value="" style="endArrow=none;html=1;rounded=0;entryX=0.5;entryY=1;entryDx=0;entryDy=0;exitX=0.75;exitY=0;exitDx=0;exitDy=0;" parent="1" source="aEyc14tu9C3hR04fVkb9-65" target="aEyc14tu9C3hR04fVkb9-194" edge="1">
          <mxGeometry width="50" height="50" relative="1" as="geometry">
            <mxPoint x="2786" y="3550" as="sourcePoint" />
            <mxPoint x="2836" y="3500" as="targetPoint" />
          </mxGeometry>
        </mxCell>
        <mxCell id="aEyc14tu9C3hR04fVkb9-251" value="M" style="edgeLabel;html=1;align=center;verticalAlign=middle;resizable=0;points=[];" parent="aEyc14tu9C3hR04fVkb9-195" vertex="1" connectable="0">
          <mxGeometry x="-0.2646" y="1" relative="1" as="geometry">
            <mxPoint x="7" y="55" as="offset" />
          </mxGeometry>
        </mxCell>
        <mxCell id="aEyc14tu9C3hR04fVkb9-196" value="melakukan" style="rhombus;whiteSpace=wrap;html=1;" parent="1" vertex="1">
          <mxGeometry x="966" y="3140" width="140" height="80" as="geometry" />
        </mxCell>
        <mxCell id="aEyc14tu9C3hR04fVkb9-197" value="" style="endArrow=none;html=1;rounded=0;exitX=1;exitY=0.5;exitDx=0;exitDy=0;entryX=0;entryY=0.5;entryDx=0;entryDy=0;" parent="1" source="aEyc14tu9C3hR04fVkb9-196" target="dVOeHCZodFONVVeo2tg_-1" edge="1">
          <mxGeometry width="50" height="50" relative="1" as="geometry">
            <mxPoint x="2766" y="3220" as="sourcePoint" />
            <mxPoint x="2816" y="3170" as="targetPoint" />
          </mxGeometry>
        </mxCell>
        <mxCell id="aEyc14tu9C3hR04fVkb9-255" value="1" style="edgeLabel;html=1;align=center;verticalAlign=middle;resizable=0;points=[];" parent="aEyc14tu9C3hR04fVkb9-197" vertex="1" connectable="0">
          <mxGeometry x="0.9808" y="-1" relative="1" as="geometry">
            <mxPoint x="2" y="-10" as="offset" />
          </mxGeometry>
        </mxCell>
        <mxCell id="aEyc14tu9C3hR04fVkb9-198" value="melakukan" style="rhombus;whiteSpace=wrap;html=1;" parent="1" vertex="1">
          <mxGeometry x="3616" y="3140" width="140" height="80" as="geometry" />
        </mxCell>
        <mxCell id="aEyc14tu9C3hR04fVkb9-199" value="" style="endArrow=none;html=1;rounded=0;entryX=0;entryY=0.5;entryDx=0;entryDy=0;exitX=1;exitY=0.5;exitDx=0;exitDy=0;" parent="1" source="dVOeHCZodFONVVeo2tg_-1" target="aEyc14tu9C3hR04fVkb9-198" edge="1">
          <mxGeometry width="50" height="50" relative="1" as="geometry">
            <mxPoint x="3066" y="3210" as="sourcePoint" />
            <mxPoint x="3126" y="3160" as="targetPoint" />
          </mxGeometry>
        </mxCell>
        <mxCell id="aEyc14tu9C3hR04fVkb9-257" value="1" style="edgeLabel;html=1;align=center;verticalAlign=middle;resizable=0;points=[];" parent="aEyc14tu9C3hR04fVkb9-199" vertex="1" connectable="0">
          <mxGeometry x="-0.9362" y="1" relative="1" as="geometry">
            <mxPoint x="-9" y="-8" as="offset" />
          </mxGeometry>
        </mxCell>
        <mxCell id="aEyc14tu9C3hR04fVkb9-200" value="" style="endArrow=none;html=1;rounded=0;exitX=1;exitY=0.5;exitDx=0;exitDy=0;entryX=0.5;entryY=0;entryDx=0;entryDy=0;" parent="1" source="aEyc14tu9C3hR04fVkb9-198" target="aEyc14tu9C3hR04fVkb9-80" edge="1">
          <mxGeometry width="50" height="50" relative="1" as="geometry">
            <mxPoint x="3106" y="3250" as="sourcePoint" />
            <mxPoint x="3696" y="3590" as="targetPoint" />
            <Array as="points">
              <mxPoint x="3831" y="3180" />
            </Array>
          </mxGeometry>
        </mxCell>
        <mxCell id="aEyc14tu9C3hR04fVkb9-256" value="M" style="edgeLabel;html=1;align=center;verticalAlign=middle;resizable=0;points=[];" parent="aEyc14tu9C3hR04fVkb9-200" vertex="1" connectable="0">
          <mxGeometry x="0.9265" relative="1" as="geometry">
            <mxPoint x="14" as="offset" />
          </mxGeometry>
        </mxCell>
        <mxCell id="aEyc14tu9C3hR04fVkb9-205" value="no_telepon" style="ellipse;whiteSpace=wrap;html=1;" parent="1" vertex="1">
          <mxGeometry x="2416" y="3370" width="170" height="80" as="geometry" />
        </mxCell>
        <mxCell id="aEyc14tu9C3hR04fVkb9-206" value="" style="endArrow=none;html=1;rounded=0;entryX=0.5;entryY=1;entryDx=0;entryDy=0;exitX=0.5;exitY=0;exitDx=0;exitDy=0;" parent="1" source="aEyc14tu9C3hR04fVkb9-205" target="dVOeHCZodFONVVeo2tg_-3" edge="1">
          <mxGeometry width="50" height="50" relative="1" as="geometry">
            <mxPoint x="2346" y="3500" as="sourcePoint" />
            <mxPoint x="2396" y="3450" as="targetPoint" />
          </mxGeometry>
        </mxCell>
        <mxCell id="aEyc14tu9C3hR04fVkb9-207" value="" style="endArrow=none;html=1;rounded=0;entryX=0;entryY=0.5;entryDx=0;entryDy=0;exitX=0.5;exitY=0;exitDx=0;exitDy=0;" parent="1" source="aEyc14tu9C3hR04fVkb9-208" target="aEyc14tu9C3hR04fVkb9-22" edge="1">
          <mxGeometry width="50" height="50" relative="1" as="geometry">
            <mxPoint x="586" y="3700" as="sourcePoint" />
            <mxPoint x="996" y="3890" as="targetPoint" />
            <Array as="points">
              <mxPoint x="406" y="3650" />
              <mxPoint x="586" y="3650" />
            </Array>
          </mxGeometry>
        </mxCell>
        <mxCell id="aEyc14tu9C3hR04fVkb9-268" value="1" style="edgeLabel;html=1;align=center;verticalAlign=middle;resizable=0;points=[];" parent="aEyc14tu9C3hR04fVkb9-207" vertex="1" connectable="0">
          <mxGeometry x="0.8523" y="1" relative="1" as="geometry">
            <mxPoint x="10" y="-8" as="offset" />
          </mxGeometry>
        </mxCell>
        <mxCell id="aEyc14tu9C3hR04fVkb9-208" value="mengisi" style="rhombus;whiteSpace=wrap;html=1;" parent="1" vertex="1">
          <mxGeometry x="336" y="3700" width="140" height="80" as="geometry" />
        </mxCell>
        <mxCell id="aEyc14tu9C3hR04fVkb9-210" value="" style="endArrow=none;html=1;rounded=0;entryX=0.5;entryY=1;entryDx=0;entryDy=0;exitX=0.5;exitY=0;exitDx=0;exitDy=0;" parent="1" source="dVOeHCZodFONVVeo2tg_-4" target="aEyc14tu9C3hR04fVkb9-208" edge="1">
          <mxGeometry width="50" height="50" relative="1" as="geometry">
            <mxPoint x="726" y="4000" as="sourcePoint" />
            <mxPoint x="776" y="3950" as="targetPoint" />
          </mxGeometry>
        </mxCell>
        <mxCell id="aEyc14tu9C3hR04fVkb9-269" value="M" style="edgeLabel;html=1;align=center;verticalAlign=middle;resizable=0;points=[];" parent="aEyc14tu9C3hR04fVkb9-210" vertex="1" connectable="0">
          <mxGeometry x="-0.3818" y="4" relative="1" as="geometry">
            <mxPoint x="10" as="offset" />
          </mxGeometry>
        </mxCell>
        <mxCell id="aEyc14tu9C3hR04fVkb9-213" value="mengisi" style="rhombus;whiteSpace=wrap;html=1;" parent="1" vertex="1">
          <mxGeometry x="1416" y="3590" width="140" height="80" as="geometry" />
        </mxCell>
        <mxCell id="aEyc14tu9C3hR04fVkb9-214" value="" style="endArrow=none;html=1;rounded=0;exitX=1;exitY=0.25;exitDx=0;exitDy=0;entryX=0;entryY=0.5;entryDx=0;entryDy=0;" parent="1" source="aEyc14tu9C3hR04fVkb9-22" target="aEyc14tu9C3hR04fVkb9-213" edge="1">
          <mxGeometry width="50" height="50" relative="1" as="geometry">
            <mxPoint x="1316" y="3910" as="sourcePoint" />
            <mxPoint x="1166" y="3650" as="targetPoint" />
          </mxGeometry>
        </mxCell>
        <mxCell id="aEyc14tu9C3hR04fVkb9-272" value="1" style="edgeLabel;html=1;align=center;verticalAlign=middle;resizable=0;points=[];" parent="aEyc14tu9C3hR04fVkb9-214" vertex="1" connectable="0">
          <mxGeometry x="-0.927" relative="1" as="geometry">
            <mxPoint y="-12" as="offset" />
          </mxGeometry>
        </mxCell>
        <mxCell id="aEyc14tu9C3hR04fVkb9-215" value="" style="endArrow=none;html=1;rounded=0;entryX=1;entryY=0.5;entryDx=0;entryDy=0;exitX=0.5;exitY=0;exitDx=0;exitDy=0;" parent="1" source="dVOeHCZodFONVVeo2tg_-6" target="aEyc14tu9C3hR04fVkb9-213" edge="1">
          <mxGeometry width="50" height="50" relative="1" as="geometry">
            <mxPoint x="1666" y="3650" as="sourcePoint" />
            <mxPoint x="1546" y="3860" as="targetPoint" />
            <Array as="points">
              <mxPoint x="1696" y="3630" />
            </Array>
          </mxGeometry>
        </mxCell>
        <mxCell id="aEyc14tu9C3hR04fVkb9-275" value="M" style="edgeLabel;html=1;align=center;verticalAlign=middle;resizable=0;points=[];" parent="aEyc14tu9C3hR04fVkb9-215" vertex="1" connectable="0">
          <mxGeometry x="-0.6931" y="-1" relative="1" as="geometry">
            <mxPoint x="11" y="10" as="offset" />
          </mxGeometry>
        </mxCell>
        <mxCell id="aEyc14tu9C3hR04fVkb9-217" value="mengisi" style="rhombus;whiteSpace=wrap;html=1;" parent="1" vertex="1">
          <mxGeometry x="596" y="3170" width="140" height="80" as="geometry" />
        </mxCell>
        <mxCell id="aEyc14tu9C3hR04fVkb9-218" value="" style="endArrow=none;html=1;rounded=0;exitX=0;exitY=0;exitDx=0;exitDy=0;entryX=1;entryY=0.5;entryDx=0;entryDy=0;" parent="1" source="aEyc14tu9C3hR04fVkb9-22" target="aEyc14tu9C3hR04fVkb9-217" edge="1">
          <mxGeometry width="50" height="50" relative="1" as="geometry">
            <mxPoint x="966" y="3390" as="sourcePoint" />
            <mxPoint x="1001" y="3210" as="targetPoint" />
            <Array as="points">
              <mxPoint x="821" y="3210" />
            </Array>
          </mxGeometry>
        </mxCell>
        <mxCell id="aEyc14tu9C3hR04fVkb9-270" value="1" style="edgeLabel;html=1;align=center;verticalAlign=middle;resizable=0;points=[];" parent="aEyc14tu9C3hR04fVkb9-218" vertex="1" connectable="0">
          <mxGeometry x="-0.9528" y="-1" relative="1" as="geometry">
            <mxPoint x="3" y="-3" as="offset" />
          </mxGeometry>
        </mxCell>
        <mxCell id="aEyc14tu9C3hR04fVkb9-219" value="" style="endArrow=none;html=1;rounded=0;entryX=0;entryY=0.5;entryDx=0;entryDy=0;exitX=0.75;exitY=0;exitDx=0;exitDy=0;" parent="1" source="dVOeHCZodFONVVeo2tg_-5" target="aEyc14tu9C3hR04fVkb9-217" edge="1">
          <mxGeometry width="50" height="50" relative="1" as="geometry">
            <mxPoint x="966" y="3390" as="sourcePoint" />
            <mxPoint x="1016" y="3340" as="targetPoint" />
            <Array as="points">
              <mxPoint x="456" y="3210" />
            </Array>
          </mxGeometry>
        </mxCell>
        <mxCell id="aEyc14tu9C3hR04fVkb9-271" value="M" style="edgeLabel;html=1;align=center;verticalAlign=middle;resizable=0;points=[];" parent="aEyc14tu9C3hR04fVkb9-219" vertex="1" connectable="0">
          <mxGeometry x="-0.8831" y="-3" relative="1" as="geometry">
            <mxPoint x="4" as="offset" />
          </mxGeometry>
        </mxCell>
        <mxCell id="aEyc14tu9C3hR04fVkb9-220" value="terdapat" style="rhombus;whiteSpace=wrap;html=1;" parent="1" vertex="1">
          <mxGeometry x="3396" y="4110" width="150" height="90" as="geometry" />
        </mxCell>
        <mxCell id="aEyc14tu9C3hR04fVkb9-221" value="" style="endArrow=none;html=1;rounded=0;entryX=0;entryY=0.25;entryDx=0;entryDy=0;exitX=0.5;exitY=0;exitDx=0;exitDy=0;" parent="1" source="aEyc14tu9C3hR04fVkb9-220" target="aEyc14tu9C3hR04fVkb9-80" edge="1">
          <mxGeometry width="50" height="50" relative="1" as="geometry">
            <mxPoint x="2816" y="4110" as="sourcePoint" />
            <mxPoint x="2866" y="4060" as="targetPoint" />
            <Array as="points">
              <mxPoint x="3471" y="3658" />
            </Array>
          </mxGeometry>
        </mxCell>
        <mxCell id="aEyc14tu9C3hR04fVkb9-285" value="M" style="edgeLabel;html=1;align=center;verticalAlign=middle;resizable=0;points=[];" parent="aEyc14tu9C3hR04fVkb9-221" vertex="1" connectable="0">
          <mxGeometry x="0.9299" y="1" relative="1" as="geometry">
            <mxPoint x="3" y="-8" as="offset" />
          </mxGeometry>
        </mxCell>
        <mxCell id="aEyc14tu9C3hR04fVkb9-222" value="" style="endArrow=none;html=1;rounded=0;entryX=0.5;entryY=1;entryDx=0;entryDy=0;exitX=1;exitY=0.75;exitDx=0;exitDy=0;" parent="1" source="dVOeHCZodFONVVeo2tg_-8" target="aEyc14tu9C3hR04fVkb9-220" edge="1">
          <mxGeometry width="50" height="50" relative="1" as="geometry">
            <mxPoint x="3026" y="4240" as="sourcePoint" />
            <mxPoint x="3076" y="4190" as="targetPoint" />
            <Array as="points">
              <mxPoint x="3471" y="4260" />
            </Array>
          </mxGeometry>
        </mxCell>
        <mxCell id="aEyc14tu9C3hR04fVkb9-284" value="M" style="edgeLabel;html=1;align=center;verticalAlign=middle;resizable=0;points=[];" parent="aEyc14tu9C3hR04fVkb9-222" vertex="1" connectable="0">
          <mxGeometry x="-0.9258" y="-1" relative="1" as="geometry">
            <mxPoint x="-4" y="-11" as="offset" />
          </mxGeometry>
        </mxCell>
        <mxCell id="aEyc14tu9C3hR04fVkb9-223" value="melakukan" style="rhombus;whiteSpace=wrap;html=1;" parent="1" vertex="1">
          <mxGeometry x="3206" y="4070" width="150" height="90" as="geometry" />
        </mxCell>
        <mxCell id="aEyc14tu9C3hR04fVkb9-224" value="" style="endArrow=none;html=1;rounded=0;exitX=0.5;exitY=0;exitDx=0;exitDy=0;entryX=1;entryY=0.75;entryDx=0;entryDy=0;" parent="1" source="aEyc14tu9C3hR04fVkb9-223" target="aEyc14tu9C3hR04fVkb9-65" edge="1">
          <mxGeometry width="50" height="50" relative="1" as="geometry">
            <mxPoint x="3277" y="4045" as="sourcePoint" />
            <mxPoint x="2996" y="3738" as="targetPoint" />
            <Array as="points">
              <mxPoint x="3281" y="3740" />
            </Array>
          </mxGeometry>
        </mxCell>
        <mxCell id="aEyc14tu9C3hR04fVkb9-282" value="M" style="edgeLabel;html=1;align=center;verticalAlign=middle;resizable=0;points=[];" parent="aEyc14tu9C3hR04fVkb9-224" vertex="1" connectable="0">
          <mxGeometry x="0.9395" y="-2" relative="1" as="geometry">
            <mxPoint x="-2" y="-7" as="offset" />
          </mxGeometry>
        </mxCell>
        <mxCell id="aEyc14tu9C3hR04fVkb9-225" value="" style="endArrow=none;html=1;rounded=0;entryX=0.5;entryY=1;entryDx=0;entryDy=0;exitX=1;exitY=0.25;exitDx=0;exitDy=0;" parent="1" source="dVOeHCZodFONVVeo2tg_-8" target="aEyc14tu9C3hR04fVkb9-223" edge="1">
          <mxGeometry width="50" height="50" relative="1" as="geometry">
            <mxPoint x="3066" y="3950" as="sourcePoint" />
            <mxPoint x="3116" y="3900" as="targetPoint" />
            <Array as="points">
              <mxPoint x="3281" y="4220" />
            </Array>
          </mxGeometry>
        </mxCell>
        <mxCell id="aEyc14tu9C3hR04fVkb9-283" value="M" style="edgeLabel;html=1;align=center;verticalAlign=middle;resizable=0;points=[];" parent="aEyc14tu9C3hR04fVkb9-225" vertex="1" connectable="0">
          <mxGeometry x="-0.931" relative="1" as="geometry">
            <mxPoint x="3" y="-9" as="offset" />
          </mxGeometry>
        </mxCell>
        <mxCell id="aEyc14tu9C3hR04fVkb9-226" value="terdapat" style="rhombus;whiteSpace=wrap;html=1;" parent="1" vertex="1">
          <mxGeometry x="2286" y="4190" width="150" height="90" as="geometry" />
        </mxCell>
        <mxCell id="aEyc14tu9C3hR04fVkb9-228" value="" style="endArrow=none;html=1;rounded=0;entryX=0;entryY=0.5;entryDx=0;entryDy=0;exitX=0.75;exitY=0;exitDx=0;exitDy=0;" parent="1" source="aEyc14tu9C3hR04fVkb9-22" target="aEyc14tu9C3hR04fVkb9-185" edge="1">
          <mxGeometry width="50" height="50" relative="1" as="geometry">
            <mxPoint x="946" y="3610" as="sourcePoint" />
            <mxPoint x="1466" y="3760" as="targetPoint" />
            <Array as="points">
              <mxPoint x="941" y="3570" />
              <mxPoint x="1946" y="3570" />
            </Array>
          </mxGeometry>
        </mxCell>
        <mxCell id="aEyc14tu9C3hR04fVkb9-276" value="1" style="edgeLabel;html=1;align=center;verticalAlign=middle;resizable=0;points=[];" parent="aEyc14tu9C3hR04fVkb9-228" vertex="1" connectable="0">
          <mxGeometry x="-0.9713" relative="1" as="geometry">
            <mxPoint x="4" y="3" as="offset" />
          </mxGeometry>
        </mxCell>
        <mxCell id="aEyc14tu9C3hR04fVkb9-229" value="" style="endArrow=none;html=1;rounded=0;exitX=1;exitY=0.75;exitDx=0;exitDy=0;entryX=0;entryY=0.5;entryDx=0;entryDy=0;" parent="1" source="aEyc14tu9C3hR04fVkb9-22" target="aEyc14tu9C3hR04fVkb9-226" edge="1">
          <mxGeometry width="50" height="50" relative="1" as="geometry">
            <mxPoint x="1336" y="3730" as="sourcePoint" />
            <mxPoint x="1386" y="3680" as="targetPoint" />
            <Array as="points">
              <mxPoint x="1320" y="3668" />
              <mxPoint x="1320" y="4240" />
            </Array>
          </mxGeometry>
        </mxCell>
        <mxCell id="aEyc14tu9C3hR04fVkb9-280" value="1" style="edgeLabel;html=1;align=center;verticalAlign=middle;resizable=0;points=[];" parent="aEyc14tu9C3hR04fVkb9-229" vertex="1" connectable="0">
          <mxGeometry x="-0.9788" y="2" relative="1" as="geometry">
            <mxPoint x="-4" y="-6" as="offset" />
          </mxGeometry>
        </mxCell>
        <mxCell id="aEyc14tu9C3hR04fVkb9-231" value="" style="endArrow=none;html=1;rounded=0;exitX=1;exitY=0.5;exitDx=0;exitDy=0;entryX=0;entryY=0.5;entryDx=0;entryDy=0;" parent="1" edge="1">
          <mxGeometry width="50" height="50" relative="1" as="geometry">
            <mxPoint x="2436" y="4235" as="sourcePoint" />
            <mxPoint x="2801" y="4240" as="targetPoint" />
          </mxGeometry>
        </mxCell>
        <mxCell id="aEyc14tu9C3hR04fVkb9-281" value="M" style="edgeLabel;html=1;align=center;verticalAlign=middle;resizable=0;points=[];" parent="aEyc14tu9C3hR04fVkb9-231" vertex="1" connectable="0">
          <mxGeometry x="0.8886" relative="1" as="geometry">
            <mxPoint y="-10" as="offset" />
          </mxGeometry>
        </mxCell>
        <mxCell id="aEyc14tu9C3hR04fVkb9-236" value="melakukan" style="rhombus;whiteSpace=wrap;html=1;" parent="1" vertex="1">
          <mxGeometry x="3976" y="4630" width="160" height="80" as="geometry" />
        </mxCell>
        <mxCell id="aEyc14tu9C3hR04fVkb9-237" value="" style="endArrow=none;html=1;rounded=0;entryX=1;entryY=0.25;entryDx=0;entryDy=0;exitX=1;exitY=0.5;exitDx=0;exitDy=0;" parent="1" source="aEyc14tu9C3hR04fVkb9-236" target="aEyc14tu9C3hR04fVkb9-80" edge="1">
          <mxGeometry width="50" height="50" relative="1" as="geometry">
            <mxPoint x="3316" y="4350" as="sourcePoint" />
            <mxPoint x="3366" y="4300" as="targetPoint" />
            <Array as="points">
              <mxPoint x="4186" y="4670" />
              <mxPoint x="4186" y="3658" />
            </Array>
          </mxGeometry>
        </mxCell>
        <mxCell id="aEyc14tu9C3hR04fVkb9-260" value="M" style="edgeLabel;html=1;align=center;verticalAlign=middle;resizable=0;points=[];" parent="aEyc14tu9C3hR04fVkb9-237" vertex="1" connectable="0">
          <mxGeometry x="0.9513" y="-4" relative="1" as="geometry">
            <mxPoint x="-13" y="-5" as="offset" />
          </mxGeometry>
        </mxCell>
        <mxCell id="aEyc14tu9C3hR04fVkb9-238" value="" style="endArrow=none;html=1;rounded=0;entryX=0;entryY=0.5;entryDx=0;entryDy=0;exitX=1;exitY=0.75;exitDx=0;exitDy=0;" parent="1" source="dVOeHCZodFONVVeo2tg_-2" target="aEyc14tu9C3hR04fVkb9-236" edge="1">
          <mxGeometry width="50" height="50" relative="1" as="geometry">
            <mxPoint x="2966" y="4720" as="sourcePoint" />
            <mxPoint x="3016" y="4670" as="targetPoint" />
          </mxGeometry>
        </mxCell>
        <mxCell id="aEyc14tu9C3hR04fVkb9-261" value="1" style="edgeLabel;html=1;align=center;verticalAlign=middle;resizable=0;points=[];" parent="aEyc14tu9C3hR04fVkb9-238" vertex="1" connectable="0">
          <mxGeometry x="-0.9582" y="1" relative="1" as="geometry">
            <mxPoint y="-9" as="offset" />
          </mxGeometry>
        </mxCell>
        <mxCell id="aEyc14tu9C3hR04fVkb9-239" value="" style="endArrow=none;html=1;rounded=0;entryX=1;entryY=0.25;entryDx=0;entryDy=0;exitX=0.5;exitY=0;exitDx=0;exitDy=0;" parent="1" source="aEyc14tu9C3hR04fVkb9-240" target="aEyc14tu9C3hR04fVkb9-65" edge="1">
          <mxGeometry width="50" height="50" relative="1" as="geometry">
            <mxPoint x="3316" y="3680" as="sourcePoint" />
            <mxPoint x="2936" y="3880" as="targetPoint" />
            <Array as="points">
              <mxPoint x="3376" y="3703" />
            </Array>
          </mxGeometry>
        </mxCell>
        <mxCell id="aEyc14tu9C3hR04fVkb9-258" value="M" style="edgeLabel;html=1;align=center;verticalAlign=middle;resizable=0;points=[];" parent="aEyc14tu9C3hR04fVkb9-239" vertex="1" connectable="0">
          <mxGeometry x="0.9711" y="-2" relative="1" as="geometry">
            <mxPoint y="-7" as="offset" />
          </mxGeometry>
        </mxCell>
        <mxCell id="aEyc14tu9C3hR04fVkb9-240" value="melakukan" style="rhombus;whiteSpace=wrap;html=1;" parent="1" vertex="1">
          <mxGeometry x="3296" y="4480" width="160" height="80" as="geometry" />
        </mxCell>
        <mxCell id="aEyc14tu9C3hR04fVkb9-241" value="" style="endArrow=none;html=1;rounded=0;entryX=0.5;entryY=1;entryDx=0;entryDy=0;exitX=1;exitY=0.25;exitDx=0;exitDy=0;" parent="1" source="dVOeHCZodFONVVeo2tg_-2" target="aEyc14tu9C3hR04fVkb9-240" edge="1">
          <mxGeometry width="50" height="50" relative="1" as="geometry">
            <mxPoint x="3026" y="4420" as="sourcePoint" />
            <mxPoint x="3076" y="4370" as="targetPoint" />
            <Array as="points">
              <mxPoint x="3376" y="4630" />
            </Array>
          </mxGeometry>
        </mxCell>
        <mxCell id="aEyc14tu9C3hR04fVkb9-259" value="1" style="edgeLabel;html=1;align=center;verticalAlign=middle;resizable=0;points=[];" parent="aEyc14tu9C3hR04fVkb9-241" vertex="1" connectable="0">
          <mxGeometry x="-0.9134" y="2" relative="1" as="geometry">
            <mxPoint y="-9" as="offset" />
          </mxGeometry>
        </mxCell>
        <mxCell id="aEyc14tu9C3hR04fVkb9-242" value="melakukan" style="rhombus;whiteSpace=wrap;html=1;" parent="1" vertex="1">
          <mxGeometry x="1426" y="4610" width="160" height="80" as="geometry" />
        </mxCell>
        <mxCell id="aEyc14tu9C3hR04fVkb9-243" value="" style="endArrow=none;html=1;rounded=0;entryX=0;entryY=0.5;entryDx=0;entryDy=0;exitX=1;exitY=0.5;exitDx=0;exitDy=0;" parent="1" target="aEyc14tu9C3hR04fVkb9-242" edge="1">
          <mxGeometry width="50" height="50" relative="1" as="geometry">
            <mxPoint x="981" y="3648" as="sourcePoint" />
            <mxPoint x="1416" y="4678" as="targetPoint" />
            <Array as="points">
              <mxPoint x="1340" y="3648" />
              <mxPoint x="1340" y="4650" />
            </Array>
          </mxGeometry>
        </mxCell>
        <mxCell id="aEyc14tu9C3hR04fVkb9-263" value="1" style="edgeLabel;html=1;align=center;verticalAlign=middle;resizable=0;points=[];" parent="aEyc14tu9C3hR04fVkb9-243" vertex="1" connectable="0">
          <mxGeometry x="-0.975" y="-1" relative="1" as="geometry">
            <mxPoint x="-3" y="-8" as="offset" />
          </mxGeometry>
        </mxCell>
        <mxCell id="aEyc14tu9C3hR04fVkb9-244" value="" style="endArrow=none;html=1;rounded=0;entryX=0;entryY=0.5;entryDx=0;entryDy=0;exitX=1;exitY=0.5;exitDx=0;exitDy=0;" parent="1" source="aEyc14tu9C3hR04fVkb9-242" target="dVOeHCZodFONVVeo2tg_-2" edge="1">
          <mxGeometry width="50" height="50" relative="1" as="geometry">
            <mxPoint x="2226" y="4440" as="sourcePoint" />
            <mxPoint x="2276" y="4390" as="targetPoint" />
          </mxGeometry>
        </mxCell>
        <mxCell id="aEyc14tu9C3hR04fVkb9-262" value="1" style="edgeLabel;html=1;align=center;verticalAlign=middle;resizable=0;points=[];" parent="aEyc14tu9C3hR04fVkb9-244" vertex="1" connectable="0">
          <mxGeometry x="0.9658" y="1" relative="1" as="geometry">
            <mxPoint y="-9" as="offset" />
          </mxGeometry>
        </mxCell>
        <mxCell id="BO1tZOv4_t0ARcXXnAf2-3" value="" style="endArrow=none;html=1;rounded=0;entryX=0.5;entryY=0;entryDx=0;entryDy=0;exitX=1;exitY=0.5;exitDx=0;exitDy=0;" parent="1" source="BO1tZOv4_t0ARcXXnAf2-5" target="dVOeHCZodFONVVeo2tg_-7" edge="1">
          <mxGeometry width="50" height="50" relative="1" as="geometry">
            <mxPoint x="2180" y="3550" as="sourcePoint" />
            <mxPoint x="1500" y="4020" as="targetPoint" />
            <Array as="points">
              <mxPoint x="1280" y="3540" />
              <mxPoint x="2180" y="3540" />
            </Array>
          </mxGeometry>
        </mxCell>
        <mxCell id="BO1tZOv4_t0ARcXXnAf2-11" value="1" style="edgeLabel;html=1;align=center;verticalAlign=middle;resizable=0;points=[];" parent="BO1tZOv4_t0ARcXXnAf2-3" vertex="1" connectable="0">
          <mxGeometry x="0.914" y="7" relative="1" as="geometry">
            <mxPoint x="1" y="56" as="offset" />
          </mxGeometry>
        </mxCell>
        <mxCell id="BO1tZOv4_t0ARcXXnAf2-5" value="memerlukan" style="rhombus;whiteSpace=wrap;html=1;" parent="1" vertex="1">
          <mxGeometry x="1138" y="3040" width="140" height="80" as="geometry" />
        </mxCell>
        <mxCell id="BO1tZOv4_t0ARcXXnAf2-6" value="" style="endArrow=none;html=1;rounded=0;entryX=0;entryY=0.5;entryDx=0;entryDy=0;exitX=0.25;exitY=0;exitDx=0;exitDy=0;" parent="1" source="dVOeHCZodFONVVeo2tg_-5" target="BO1tZOv4_t0ARcXXnAf2-5" edge="1">
          <mxGeometry width="50" height="50" relative="1" as="geometry">
            <mxPoint x="990" y="3570" as="sourcePoint" />
            <mxPoint x="1040" y="3520" as="targetPoint" />
            <Array as="points">
              <mxPoint x="356" y="3080" />
            </Array>
          </mxGeometry>
        </mxCell>
        <mxCell id="BO1tZOv4_t0ARcXXnAf2-12" value="1" style="edgeLabel;html=1;align=center;verticalAlign=middle;resizable=0;points=[];" parent="BO1tZOv4_t0ARcXXnAf2-6" vertex="1" connectable="0">
          <mxGeometry x="-0.9437" y="-2" relative="1" as="geometry">
            <mxPoint x="3" y="15" as="offset" />
          </mxGeometry>
        </mxCell>
        <mxCell id="BO1tZOv4_t0ARcXXnAf2-8" value="" style="endArrow=none;html=1;rounded=0;exitX=1;exitY=0.5;exitDx=0;exitDy=0;entryX=0;entryY=0.5;entryDx=0;entryDy=0;" parent="1" source="dVOeHCZodFONVVeo2tg_-7" target="BO1tZOv4_t0ARcXXnAf2-9" edge="1">
          <mxGeometry width="50" height="50" relative="1" as="geometry">
            <mxPoint x="2470" y="3940" as="sourcePoint" />
            <mxPoint x="2520" y="3850" as="targetPoint" />
            <Array as="points">
              <mxPoint x="2550" y="3840" />
            </Array>
          </mxGeometry>
        </mxCell>
        <mxCell id="BO1tZOv4_t0ARcXXnAf2-13" value="1" style="edgeLabel;html=1;align=center;verticalAlign=middle;resizable=0;points=[];" parent="BO1tZOv4_t0ARcXXnAf2-8" vertex="1" connectable="0">
          <mxGeometry x="-0.9437" y="3" relative="1" as="geometry">
            <mxPoint x="-8" y="-7" as="offset" />
          </mxGeometry>
        </mxCell>
        <mxCell id="BO1tZOv4_t0ARcXXnAf2-9" value="memerlukan" style="rhombus;whiteSpace=wrap;html=1;" parent="1" vertex="1">
          <mxGeometry x="2550" y="4115" width="140" height="80" as="geometry" />
        </mxCell>
        <mxCell id="BO1tZOv4_t0ARcXXnAf2-10" value="" style="endArrow=none;html=1;rounded=0;exitX=0.5;exitY=0;exitDx=0;exitDy=0;entryX=1;entryY=0.5;entryDx=0;entryDy=0;" parent="1" source="dVOeHCZodFONVVeo2tg_-8" target="BO1tZOv4_t0ARcXXnAf2-9" edge="1">
          <mxGeometry width="50" height="50" relative="1" as="geometry">
            <mxPoint x="2580" y="4170" as="sourcePoint" />
            <mxPoint x="2630" y="4120" as="targetPoint" />
            <Array as="points">
              <mxPoint x="2901" y="4155" />
            </Array>
          </mxGeometry>
        </mxCell>
        <mxCell id="BO1tZOv4_t0ARcXXnAf2-14" value="1" style="edgeLabel;html=1;align=center;verticalAlign=middle;resizable=0;points=[];" parent="BO1tZOv4_t0ARcXXnAf2-10" vertex="1" connectable="0">
          <mxGeometry x="-0.9066" relative="1" as="geometry">
            <mxPoint x="5" y="2" as="offset" />
          </mxGeometry>
        </mxCell>
      </root>
    </mxGraphModel>
  </diagram>
</mxfile>
